<svg width="72" height="72" viewBox="0 0 72 72" fill="none" xmlns="http://www.w3.org/2000/svg">
<path fill-rule="evenodd" clip-rule="evenodd" d="M36.2461 0C26.7214 0 19 7.72135 19 17.2461V25H2C0.895431 25 0 25.8954 0 27V60.9779C0 67.0654 5.5833 72 12.4706 72H59.5294C66.4169 72 72 67.0654 72 60.9779V27C72 25.8954 71.1046 25 70 25H53.4922V17.2461C53.4922 7.72135 45.7708 0 36.2461 0ZM47.2745 25V17.2461C47.2745 11.1553 42.3369 6.21765 36.2461 6.21765C30.1553 6.21765 25.2176 11.1553 25.2176 17.2461V25H47.2745Z" fill="black" fill-opacity="0.67"/>
</svg>
