<svg width="96" height="109" viewBox="0 0 96 109" fill="none" xmlns="http://www.w3.org/2000/svg">
<path fill-rule="evenodd" clip-rule="evenodd" d="M32.6429 0H25.3571C24.0553 0 23 1.45507 23 3.25V9.75C23 9.95087 23.0132 10.1475 23.0385 10.3383C10.0112 14.2588 0.521729 26.3473 0.521729 40.6522V94.913C0.521729 102.405 6.5951 108.478 14.0869 108.478H81.913C89.4051 108.478 95.4782 102.405 95.4782 94.913V40.6522C95.4782 26.3484 85.9903 14.2607 72.9646 10.3392C72.9878 10.1481 73 9.95119 73 9.75V3.25C73 1.45507 72.0326 0 70.8393 0H64.1607C62.9674 0 62 1.45507 62 3.25V9H35V3.25C35 1.45507 33.9447 0 32.6429 0ZM23.1304 55.5739C23.1304 54.8247 23.7377 54.2174 24.487 54.2174H71.513C72.2623 54.2174 72.8696 54.8247 72.8696 55.5739V70.9478C72.8696 71.6971 72.2623 72.3044 71.513 72.3044H65.1826C64.4334 72.3044 63.8261 71.6971 63.8261 70.9478V64.6174C63.8261 63.8682 63.2188 63.2609 62.4696 63.2609H24.487C23.7377 63.2609 23.1304 62.6536 23.1304 61.9044V55.5739Z" fill="black" fill-opacity="0.67"/>
</svg>
