<svg width="71" height="72" viewBox="0 0 71 72" fill="none" xmlns="http://www.w3.org/2000/svg">
<path d="M35.0479 48.6C31.7041 48.6 28.4973 47.2727 26.1328 44.9096C23.7683 42.5466 22.4399 39.3419 22.4399 36C22.4399 32.6581 23.7683 29.4534 26.1328 27.0905C28.4973 24.7275 31.7041 23.4 35.0479 23.4C38.3919 23.4 41.5987 24.7275 43.9632 27.0905C46.3278 29.4534 47.656 32.6581 47.656 36C47.656 39.3419 46.3278 42.5466 43.9632 44.9096C41.5987 47.2727 38.3919 48.6 35.0479 48.6ZM61.813 39.492C61.9571 38.34 62.0652 37.188 62.0652 36C62.0652 34.812 61.9571 33.624 61.813 32.4L69.4139 26.532C70.0983 25.992 70.2784 25.02 69.8462 24.228L62.6416 11.772C62.2093 10.98 61.2367 10.656 60.4441 10.98L51.4744 14.58C49.6012 13.176 47.656 11.952 45.3865 11.052L44.0537 1.51201C43.9805 1.088 43.7597 0.703554 43.4297 0.426786C43.1001 0.150054 42.6833 -0.00114547 42.2525 6.53454e-06H27.8434C26.9428 6.53454e-06 26.1863 0.648006 26.0422 1.51201L24.7094 11.052C22.4399 11.952 20.4947 13.176 18.6215 14.58L9.65176 10.98C8.85926 10.656 7.88663 10.98 7.45436 11.772L0.249749 24.228C-0.218544 25.02 -0.00240555 25.992 0.682025 26.532L8.28289 32.4C8.1388 33.624 8.03073 34.812 8.03073 36C8.03073 37.188 8.1388 38.34 8.28289 39.492L0.682025 45.468C-0.00240555 46.008 -0.218544 46.98 0.249749 47.772L7.45436 60.228C7.88663 61.02 8.85926 61.308 9.65176 61.02L18.6215 57.384C20.4947 58.824 22.4399 60.048 24.7094 60.948L26.0422 70.488C26.1863 71.352 26.9428 72 27.8434 72H42.2525C43.1531 72 43.9096 71.352 44.0537 70.488L45.3865 60.948C47.656 60.012 49.6012 58.824 51.4744 57.384L60.4441 61.02C61.2367 61.308 62.2093 61.02 62.6416 60.228L69.8462 47.772C70.2784 46.98 70.0983 46.008 69.4139 45.468L61.813 39.492Z" fill="black" fill-opacity="0.67"/>
</svg>
