<svg width="77" height="78" viewBox="0 0 77 78" fill="none" xmlns="http://www.w3.org/2000/svg">
<path fill-rule="evenodd" clip-rule="evenodd" d="M65.5164 0H10.8197C4.84417 0 0 4.84417 0 10.8197V66.464C0 72.4396 4.84417 77.2838 10.8197 77.2838H65.5164C71.492 77.2838 76.3362 72.4396 76.3362 66.464V10.8197C76.3362 4.84417 71.492 0 65.5164 0ZM42.5235 31.8985H33.8145C32.6763 31.8985 31.7536 32.8212 31.7536 33.9594V64.3204C31.7536 65.4586 32.6763 66.3813 33.8145 66.3813H42.5235C43.6617 66.3813 44.5844 65.4586 44.5844 64.3204V33.9594C44.5844 32.8212 43.6617 31.8985 42.5235 31.8985ZM33.8145 11.8504H42.5235C43.6617 11.8504 44.5844 12.7731 44.5844 13.9113V22.6203C44.5844 23.7585 43.6617 24.6812 42.5235 24.6812H33.8145C32.6763 24.6812 31.7536 23.7585 31.7536 22.6203V13.9113C31.7536 12.7731 32.6763 11.8504 33.8145 11.8504Z" fill="black" fill-opacity="0.67"/>
</svg>
