<svg width="97" height="96" viewBox="0 0 97 96" fill="none" xmlns="http://www.w3.org/2000/svg">
<path d="M0 83.1579C0 76.7366 2.55076 70.5787 7.09108 66.0386C11.6315 61.4979 17.7895 58.9474 24.2105 58.9474H72.6316C79.0528 58.9474 85.2108 61.4979 89.7508 66.0386C94.2915 70.5787 96.8421 76.7366 96.8421 83.1579C96.8421 86.3682 95.5668 89.4472 93.2965 91.7175C91.0261 93.9879 87.9472 95.2631 84.7368 95.2631H12.1053C8.89477 95.2631 5.81573 93.9879 3.54557 91.7175C1.27535 89.4472 0 86.3682 0 83.1579Z" fill="black" fill-opacity="0.67"/>
<path d="M48.2105 48.4211C61.5814 48.4211 72.4211 37.5816 72.4211 24.2105C72.4211 10.8394 61.5814 0 48.2105 0C34.8394 0 24 10.8394 24 24.2105C24 37.5816 34.8394 48.4211 48.2105 48.4211Z" fill="black" fill-opacity="0.67"/>
</svg>
